name C:\Users\u0150099\Documents\master_thesis\3dpredictsim\Results\debug\Fal_s1_mtjc1_sc_cspx10_oy2_TrackAnkleQSubtQ_MTc2_MTPm_k1_d01_MTJm_nl_MG_exp5_table_d01_PF_Natali2010_ls146_ig21.mot
datacolumns 128
datarows 4
range 1.65237583 1.68542335
endheader
time	pelvis_tilt	pelvis_list	pelvis_rotation	pelvis_tx	pelvis_ty	pelvis_tz	hip_flexion_l	hip_adduction_l	hip_rotation_l	hip_flexion_r	hip_adduction_r	hip_rotation_r	knee_angle_l	knee_angle_r	ankle_angle_l	ankle_angle_r	subtalar_angle_l	subtalar_angle_r	mtj_angle_l	mtj_angle_r	mtp_angle_l	mtp_angle_r	lumbar_extension	lumbar_bending	lumbar_rotation	arm_flex_l	arm_add_l	arm_rot_l	arm_flex_r	arm_add_r	arm_rot_r	elbow_flex_l	elbow_flex_r	pro_sup_l	pro_sup_r	glut_med1_l/activation	glut_med2_l/activation	glut_med3_l/activation	glut_min1_l/activation	glut_min2_l/activation	glut_min3_l/activation	semimem_l/activation	semiten_l/activation	bifemlh_l/activation	bifemsh_l/activation	sar_l/activation	add_long_l/activation	add_brev_l/activation	add_mag1_l/activation	add_mag2_l/activation	add_mag3_l/activation	tfl_l/activation	pect_l/activation	grac_l/activation	glut_max1_l/activation	glut_max2_l/activation	glut_max3_l/activation	iliacus_l/activation	psoas_l/activation	quad_fem_l/activation	gem_l/activation	peri_l/activation	rect_fem_l/activation	vas_med_l/activation	vas_int_l/activation	vas_lat_l/activation	med_gas_l/activation	lat_gas_l/activation	soleus_l/activation	tib_post_l/activation	flex_dig_l/activation	flex_hal_l/activation	tib_ant_l/activation	per_brev_l/activation	per_long_l/activation	per_tert_l/activation	ext_dig_l/activation	ext_hal_l/activation	ercspn_l/activation	intobl_l/activation	extobl_l/activation	glut_med1_r/activation	glut_med2_r/activation	glut_med3_r/activation	glut_min1_r/activation	glut_min2_r/activation	glut_min3_r/activation	semimem_r/activation	semiten_r/activation	bifemlh_r/activation	bifemsh_r/activation	sar_r/activation	add_long_r/activation	add_brev_r/activation	add_mag1_r/activation	add_mag2_r/activation	add_mag3_r/activation	tfl_r/activation	pect_r/activation	grac_r/activation	glut_max1_r/activation	glut_max2_r/activation	glut_max3_r/activation	iliacus_r/activation	psoas_r/activation	quad_fem_r/activation	gem_r/activation	peri_r/activation	rect_fem_r/activation	vas_med_r/activation	vas_int_r/activation	vas_lat_r/activation	med_gas_r/activation	lat_gas_r/activation	soleus_r/activation	tib_post_r/activation	flex_dig_r/activation	flex_hal_r/activation	tib_ant_r/activation	per_brev_r/activation	per_long_r/activation	per_tert_r/activation	ext_dig_r/activation	ext_hal_r/activation	ercspn_r/activation	intobl_r/activation	extobl_r/activation	
          1.65237583	         -2.92580237	          1.07220994	         -4.95462974	          2.19765986	          0.90937014	          0.00765537	         27.55724522	          1.94554443	         -4.98035903	        -11.85810586	          1.64777880	          4.83804410	         -7.42866648	        -20.52650918	          2.80124587	          3.32041808	          0.42095046	          7.78163676	          2.14010418	          0.49150052	          1.08314229	         23.57853293	         -6.06283048	         -0.55827014	          1.00299493	         -1.12239171	        -13.48935518	          9.96708503	          3.12220276	        -14.43936550	         19.21474773	         23.26613188	         44.27010245	         86.51662706	         86.51662706	          0.05000010	          0.05000005	          0.05917978	          0.05000003	          0.05000004	          0.05000020	          0.33727067	          0.07004521	          0.16515485	          0.07004513	          0.05000011	          0.10869133	          0.12852475	          0.09026876	          0.09270815	          0.15766737	          0.05000015	          0.05919451	          0.13798166	          0.05917978	          0.05917988	          0.17353161	          0.05606588	          0.05576738	          0.16642901	          0.05000035	          0.05000012	          0.05000000	          0.05000003	          0.05000002	          0.05000002	          0.11614214	          0.12055110	          0.05000000	          0.12898925	          0.07004510	          0.07004508	          0.35621322	          0.09940723	          0.20480496	          0.16014956	          0.65419017	          0.37146931	          0.05917985	          0.10384346	          0.06746893	          0.25589258	          0.05000004	          0.05000000	          0.58607056	          0.17346277	          0.05000009	          0.05000019	          0.05000001	          0.05000001	          0.05000001	          0.07004144	          0.05000000	          0.05000001	          0.05000002	          0.05000010	          0.05000011	          0.62538669	          0.05000006	          0.05000002	          0.05000023	          0.05000012	          0.05000006	          0.12389400	          0.56363129	          0.05000000	          0.05000001	          0.05000000	          0.63240180	          0.20577668	          0.20589078	          0.16722212	          0.47442696	          0.65680504	          0.21515757	          0.37762612	          0.77942344	          0.40397857	          0.05000000	          0.07683262	          0.13398055	          0.05000000	          0.05000000	          0.09812639	          0.05000000	          0.05000000	          0.05000001	
          1.66339167	         -2.92963132	          1.18468323	         -5.19724041	          2.21555595	          0.90810779	          0.00730676	         27.45342764	          2.31846771	         -4.98540450	        -13.13713876	          1.12270985	          4.83020784	         -8.05926534	        -19.85263976	          2.43426609	          2.12226350	          0.34208999	          7.99663034	          2.18895556	         -0.96852966	          1.49413505	         25.66607382	         -5.87411720	         -0.75784359	          1.12678568	         -1.98073247	        -13.46315181	          8.93964829	          2.71739886	        -14.42636307	         19.36273835	         22.78231464	         45.63364692	         86.51662706	         86.51662706	          0.05917985	          0.05917984	          0.05000001	          0.05917986	          0.05917986	          0.05916813	          0.28495390	          0.05917994	          0.13953636	          0.05917987	          0.05585220	          0.22858960	          0.10858829	          0.07626648	          0.18312636	          0.18786530	          0.05000001	          0.05001294	          0.11657824	          0.05000002	          0.05000004	          0.23983768	          0.09812632	          0.08326443	          0.39766245	          0.26939820	          0.05000017	          0.05000000	          0.05000001	          0.05000001	          0.05000001	          0.09812640	          0.10185146	          0.05338010	          0.14247803	          0.05917986	          0.05917986	          0.38623091	          0.17035483	          0.21278880	          0.24032170	          0.70447958	          0.45418076	          0.05000000	          0.08773547	          0.05700328	          0.21619903	          0.05000000	          0.05000000	          0.49516045	          0.14655558	          0.05000004	          0.05000027	          0.05000002	          0.05000001	          0.05000009	          0.05917974	          0.05917987	          0.09404918	          0.05000007	          0.05000023	          0.05000010	          0.60921228	          0.05917990	          0.05000007	          0.05000010	          0.05000006	          0.05000005	          0.10467581	          0.51403474	          0.05000000	          0.05000001	          0.05000004	          0.53430487	          0.17491713	          0.17715822	          0.14747509	          0.43602834	          0.63560062	          0.18178275	          0.31904950	          0.78130884	          0.34131421	          0.05000000	          0.10825794	          0.11319775	          0.05000000	          0.05000000	          0.08290521	          0.05000003	          0.05000000	          0.07813236	
          1.67440751	         -2.93013436	          1.31585109	         -5.41236026	          2.23374767	          0.90684531	          0.00689756	         27.39142163	          2.66753553	         -5.01238196	        -14.32004581	          0.58152786	          4.80308202	         -9.48473866	        -19.33280166	          1.83766198	          0.80746233	          0.19783771	          8.12087205	          2.35508739	         -2.58882460	          1.91960254	         27.82548102	         -5.67411292	         -0.97293966	          1.24515007	         -2.84760782	        -13.44970710	          8.14835751	          2.24397792	        -14.38277474	         19.38278738	         22.27804078	         46.94876619	         86.51662706	         86.51662706	          0.05000000	          0.05000000	          0.15121548	          0.05000000	          0.05000000	          0.05000000	          0.24075241	          0.05000006	          0.11789175	          0.05000000	          0.07048167	          0.19313126	          0.31786839	          0.27385276	          0.15472020	          0.18873623	          0.05919211	          0.09845332	          0.09849486	          0.05000060	          0.14703253	          0.26535080	          0.08290518	          0.08290520	          0.65270912	          0.22760970	          0.08097308	          0.08290522	          0.12682371	          0.12934716	          0.07306308	          0.08290523	          0.08607911	          0.07439090	          0.12409834	          0.05000000	          0.05000000	          0.47219359	          0.24972526	          0.17978143	          0.56199088	          0.72395026	          0.57805076	          0.05000000	          0.07412611	          0.05000004	          0.18266266	          0.05917988	          0.05917989	          0.41835212	          0.12382217	          0.05917991	          0.05000028	          0.05000004	          0.05917001	          0.05000000	          0.05000002	          0.05000001	          0.30957746	          0.32051614	          0.07008219	          0.14540947	          0.51471252	          0.05000007	          0.05000009	          0.05918149	          0.05918945	          0.10752485	          0.08843870	          0.44296953	          0.10456983	          0.07655316	          0.05917986	          0.45142454	          0.14778455	          0.14967786	          0.12459923	          0.40023671	          0.57512848	          0.15358496	          0.26955916	          0.66011380	          0.28837022	          0.23630562	          0.28588259	          0.09563874	          0.45225675	          0.05000000	          0.07004512	          0.08532897	          0.06998958	          0.06601264	
          1.68542335	         -2.92804230	          1.48055544	         -5.60536176	          2.25209777	          0.90557654	          0.00649464	         27.27372251	          2.92892172	         -4.95158608	        -15.34722126	          0.04312233	          4.76531004	        -11.24095656	        -19.08655339	          1.14567450	         -0.59625580	         -0.00715264	          8.13559069	          2.59578520	         -4.11708046	          2.30389524	         29.69331130	         -5.46918083	         -1.22033781	          1.35903817	         -3.69415548	        -13.46022063	          7.59576383	          1.72040394	        -14.30993356	         19.31651478	         21.72517958	         48.23241374	         86.51662706	         86.51662706	          0.39898225	          0.35821643	          0.37120064	          0.45225673	          0.40557061	          0.29775552	          0.20485951	          0.18384306	          0.15061050	          0.11615399	          0.05954883	          0.16317313	          0.26856128	          0.23137327	          0.13072033	          0.29299737	          0.05001035	          0.08318149	          0.25838124	          0.05000002	          0.26444197	          0.37121607	          0.07004510	          0.07004511	          0.55146216	          0.19230334	          0.10837521	          0.07004513	          0.10715107	          0.10928308	          0.06172968	          0.07004513	          0.07272669	          0.06285152	          0.16746587	          0.05917988	          0.05917990	          0.52520126	          0.21098837	          0.24362085	          0.47481595	          0.83068375	          0.75671595	          0.06654160	          0.08555968	          0.05000000	          0.15432845	          0.05000002	          0.05000002	          0.35345818	          0.10461514	          0.05000006	          0.05000091	          0.09812954	          0.05000004	          0.08290526	          0.05917994	          0.13428807	          0.26794731	          0.27079831	          0.05921122	          0.12285386	          0.58200299	          0.07006602	          0.05000035	          0.05000142	          0.05000812	          0.09084582	          0.07472035	          0.60947189	          0.08834916	          0.06467839	          0.05000001	          0.38140045	          0.12486050	          0.12646013	          0.10527164	          0.36971399	          0.61641667	          0.13601570	          0.22774567	          0.55771825	          0.24363879	          0.45144689	          0.45870216	          0.08080344	          0.68418667	          0.13232229	          0.05917986	          0.11568009	          0.05913293	          0.05577292	
